<svg width="29" height="28" viewBox="0 0 29 28" fill="none" xmlns="http://www.w3.org/2000/svg">
<path fill-rule="evenodd" clip-rule="evenodd" d="M15 0C7.268 0 1 6.268 1 14C1 21.732 7.268 28 15 28C22.732 28 29 21.732 29 14C29 6.268 22.732 0 15 0ZM7.72 11.595H10.894V21.128H7.72V11.595ZM11.103 8.647C11.082 7.712 10.413 7 9.328 7C8.243 7 7.533 7.712 7.533 8.647C7.533 9.562 8.222 10.294 9.287 10.294H9.307C10.414 10.294 11.103 9.562 11.103 8.647ZM18.683 11.372C20.77 11.372 22.336 12.734 22.336 15.662V21.128H19.163V16.028C19.163 14.748 18.703 13.873 17.555 13.873C16.679 13.873 16.157 14.463 15.927 15.031C15.844 15.235 15.823 15.52 15.823 15.805V21.128H12.65C12.65 21.128 12.692 12.49 12.65 11.596H15.823V12.946C16.244 12.296 16.998 11.372 18.683 11.372Z" fill="#94A0A4"/>
</svg>
